<svg xmlns="http://www.w3.org/2000/svg" version="1.1" xmlns:xlink="http://www.w3.org/1999/xlink" xmlns:svgjs="http://svgjs.com/svgjs" width="1440" height="560" preserveAspectRatio="none" viewBox="0 0 1440 560"><g mask="url(&quot;#SvgjsMask1123&quot;)" fill="none"><rect width="1440" height="560" x="0" y="0" fill="rgba(255, 255, 255, 1)"></rect><path d="M1034.22 317.42 L986.9 414.77000000000004L962.822213195683 318.35721319568313z" fill="rgba(236, 82, 66, 1)"></path><rect width="372" height="372" clip-path="url(&quot;#SvgjsClipPath1124&quot;)" x="-170.61" y="245.02" fill="url(#SvgjsPattern1125)" transform="rotate(86.81, 15.39, 431.02)"></rect><circle r="80.16717058100656" cx="476.34" cy="148.46" stroke="rgba(236, 82, 66, 1)" stroke-width="1"></circle><rect width="348" height="348" clip-path="url(&quot;#SvgjsClipPath1126&quot;)" x="1019.56" y="349.03" fill="url(#SvgjsPattern1127)" transform="rotate(208.05, 1193.56, 523.03)"></rect><path d="M1512.6799999999998 209.16000000000003 L1544.26 135.99L1583.8477901377755 227.9527901377758z" fill="rgba(236, 82, 66, 1)"></path><rect width="298.8" height="298.8" clip-path="url(&quot;#SvgjsClipPath1128&quot;)" x="159.17" y="294.3" fill="url(#SvgjsPattern1129)" transform="rotate(106.7, 308.57, 443.7)"></rect><rect width="156.4" height="156.4" clip-path="url(&quot;#SvgjsClipPath1130&quot;)" x="501.44" y="206.21" fill="url(#SvgjsPattern1131)" transform="rotate(184.05, 579.64, 284.41)"></rect><rect width="314.08" height="314.08" clip-path="url(&quot;#SvgjsClipPath1132&quot;)" x="863.6" y="326.68" fill="url(#SvgjsPattern1133)" transform="rotate(143.19, 1020.64, 483.72)"></rect><rect width="355" height="355" clip-path="url(&quot;#SvgjsClipPath1134&quot;)" x="-132.83" y="108.07" fill="url(#SvgjsPattern1135)" transform="rotate(184.6, 44.67, 285.57)"></rect><path d="M1250.1 468.59999999999997 L1106.8600000000001 505.15L1114.1853196637032 422.5803196637033z" fill="rgba(236, 82, 66, 1)"></path><path d="M1081.11 382.49 L963.6899999999999 299.52L943.1750887666954 420.22991123330456z" fill="rgba(236, 82, 66, 1)"></path><path d="M81.61999999999999 587.7 L10.32 476.28999999999996L119.44828724743795 458.51671275256206z" fill="rgba(236, 82, 66, 1)"></path></g><defs><mask id="SvgjsMask1123"><rect width="1440" height="560" fill="#ffffff"></rect></mask><pattern x="0" y="0" width="6" height="6" patternUnits="userSpaceOnUse" id="SvgjsPattern1125"><path d="M3 1L3 5M1 3L5 3" stroke="rgba(236, 82, 66, 1)" fill="none" stroke-width="1.46"></path></pattern><clipPath id="SvgjsClipPath1124"><circle r="93" cx="15.39" cy="431.02"></circle></clipPath><pattern x="0" y="0" width="348" height="6" patternUnits="userSpaceOnUse" id="SvgjsPattern1127"><rect width="348" height="3" x="0" y="0" fill="rgba(236, 82, 66, 1)"></rect><rect width="348" height="3" x="0" y="3" fill="rgba(0, 0, 0, 0)"></rect></pattern><clipPath id="SvgjsClipPath1126"><circle r="87" cx="1193.56" cy="523.03"></circle></clipPath><pattern x="0" y="0" width="9.96" height="9.96" patternUnits="userSpaceOnUse" id="SvgjsPattern1129"><path d="M0 9.96L4.98 0L9.96 9.96" stroke="rgba(236, 82, 66, 1)" fill="none"></path></pattern><clipPath id="SvgjsClipPath1128"><circle r="74.7" cx="308.57" cy="443.7"></circle></clipPath><pattern x="0" y="0" width="156.4" height="7.82" patternUnits="userSpaceOnUse" id="SvgjsPattern1131"><rect width="156.4" height="3.91" x="0" y="0" fill="rgba(236, 82, 66, 1)"></rect><rect width="156.4" height="3.91" x="0" y="3.91" fill="rgba(0, 0, 0, 0)"></rect></pattern><clipPath id="SvgjsClipPath1130"><circle r="39.1" cx="579.64" cy="284.41"></circle></clipPath><pattern x="0" y="0" width="6.04" height="6.04" patternUnits="userSpaceOnUse" id="SvgjsPattern1133"><path d="M3.02 1L3.02 5.04M1 3.02L5.04 3.02" stroke="rgba(236, 82, 66, 1)" fill="none" stroke-width="1"></path></pattern><clipPath id="SvgjsClipPath1132"><circle r="78.52" cx="1020.64" cy="483.72"></circle></clipPath><pattern x="0" y="0" width="7.1" height="7.1" patternUnits="userSpaceOnUse" id="SvgjsPattern1135"><path d="M3.55 1L3.55 6.1M1 3.55L6.1 3.55" stroke="rgba(236, 82, 66, 1)" fill="none" stroke-width="1"></path></pattern><clipPath id="SvgjsClipPath1134"><circle r="88.75" cx="44.67" cy="285.57"></circle></clipPath></defs></svg>