<svg xmlns="http://www.w3.org/2000/svg" version="1.1" xmlns:xlink="http://www.w3.org/1999/xlink" xmlns:svgjs="http://svgjs.com/svgjs" width="1960" height="1080" preserveAspectRatio="none" viewBox="0 0 1960 1080"><g mask="url(&quot;#SvgjsMask9625&quot;)" fill="none"><rect width="1960" height="1080" x="0" y="0" fill="rgba(245, 245, 245, 1)"></rect><rect width="378" height="378" clip-path="url(&quot;#SvgjsClipPath9626&quot;)" x="1544.19" y="480.58" fill="url(#SvgjsPattern9627)" transform="rotate(9.18, 1733.19, 669.58)"></rect><path d="M1458.67 711.72 L1435.55 792.94L1481.5077402494103 786.7277402494101z" fill="rgba(236, 82, 66, 1)"></path><rect width="310.64" height="310.64" clip-path="url(&quot;#SvgjsClipPath9628&quot;)" x="566.62" y="689.1" fill="url(#SvgjsPattern9629)" transform="rotate(227.55, 721.94, 844.42)"></rect><path d="M760.43 542.8199999999999 L904.76 490.91999999999996L747.8892564690756 432.16425646907544z" stroke="rgba(236, 82, 66, 1)" stroke-width="1.14" stroke-dasharray="4, 4"></path><rect width="336" height="336" clip-path="url(&quot;#SvgjsClipPath9630&quot;)" x="-53.01" y="347.6" fill="url(#SvgjsPattern9631)" transform="rotate(282.22, 114.99, 515.6)"></rect><path d="M674.0799999999999 525.33 L757.6700000000001 468L783.2172803936783 564.0072803936783z" stroke="rgba(236, 82, 66, 1)" stroke-width="1.53" stroke-dasharray="3, 3"></path><circle r="177.26395762073773" cx="1468.42" cy="671.98" stroke="rgba(236, 82, 66, 1)" stroke-width="1.02" stroke-dasharray="2, 2"></circle><path d="M1768.85 236.52L1768.48 249.32 1755.91 251.77 1755.54 264.57 1742.97 267.02 1742.6 279.82 1730.03 282.27M1762.75 231.34L1762.38 244.14 1749.81 246.59 1749.44 259.39 1736.87 261.84 1736.5 274.64 1723.93 277.09" stroke="rgba(236, 82, 66, 1)" stroke-width="1" stroke-dasharray="3, 3"></path><rect width="119.8" height="119.8" clip-path="url(&quot;#SvgjsClipPath9632&quot;)" x="677.3" y="-0.58" fill="url(#SvgjsPattern9633)" transform="rotate(56.78, 737.2, 59.32)"></rect></g><defs><mask id="SvgjsMask9625"><rect width="1960" height="1080" fill="#ffffff"></rect></mask><pattern x="0" y="0" width="6.3" height="6.3" patternUnits="userSpaceOnUse" id="SvgjsPattern9627"><path d="M3.15 1L3.15 5.3M1 3.15L5.3 3.15" stroke="rgba(236, 82, 66, 1)" fill="none" stroke-width="1"></path></pattern><clipPath id="SvgjsClipPath9626"><circle r="94.5" cx="1733.19" cy="669.58"></circle></clipPath><pattern x="0" y="0" width="7.06" height="7.06" patternUnits="userSpaceOnUse" id="SvgjsPattern9629"><path d="M3.53 1L3.53 6.06M1 3.53L6.06 3.53" stroke="rgba(236, 82, 66, 1)" fill="none" stroke-width="2.43"></path></pattern><clipPath id="SvgjsClipPath9628"><circle r="77.66" cx="721.94" cy="844.42"></circle></clipPath><pattern x="0" y="0" width="6" height="6" patternUnits="userSpaceOnUse" id="SvgjsPattern9631"><path d="M3 1L3 5M1 3L5 3" stroke="rgba(236, 82, 66, 1)" fill="none" stroke-width="1.52"></path></pattern><clipPath id="SvgjsClipPath9630"><circle r="84" cx="114.99" cy="515.6"></circle></clipPath><pattern x="0" y="0" width="11.98" height="11.98" patternUnits="userSpaceOnUse" id="SvgjsPattern9633"><path d="M5.99 1L5.99 10.98M1 5.99L10.98 5.99" stroke="rgba(236, 82, 66, 1)" fill="none" stroke-width="1.92"></path></pattern><clipPath id="SvgjsClipPath9632"><circle r="29.95" cx="737.2" cy="59.32"></circle></clipPath></defs></svg>