<svg xmlns="http://www.w3.org/2000/svg" version="1.1" xmlns:xlink="http://www.w3.org/1999/xlink" xmlns:svgjs="http://svgjs.com/svgjs" width="786" height="1080" preserveAspectRatio="none" viewBox="0 0 786 1080"><g mask="url(&quot;#SvgjsMask1233&quot;)" fill="none"><rect width="786" height="1080" x="0" y="0" fill="rgba(245, 245, 245, 1)"></rect><path d="M394 228.33 a29.19 29.19 0 1 0 58.38 0 a29.19 29.19 0 1 0 -58.38 0z" fill="rgba(39, 42, 49, 0.23)"></path><path d="M375.56 769.73L448.28 769.73L448.28 842.45L375.56 842.45z" fill="rgba(236, 82, 66, 0.51)"></path><path d="M39.06 999.91L108.42 999.91L108.42 1069.27L39.06 1069.27z" fill="rgba(236, 82, 66, 0.51)"></path><path d="M702.74 111.77L753.31 111.77L753.31 162.34L702.74 162.34z" fill="rgba(39, 42, 49, 0.23)"></path><path d="M762.92 320.52L819.52 320.52L819.52 377.12L762.92 377.12z" fill="rgba(236, 82, 66, 0.51)"></path><path d="M507.57 705.07a61.08 61.08 0 1 0-0.42 122.16z" stroke="rgba(236, 82, 66, 1)"></path><path d="M268.87 76.87L326.61 76.87L326.61 114.77L268.87 114.77z" stroke="rgba(236, 82, 66, 0.26)"></path><path d="M128.77 970.91L143.71 970.91L143.71 1021.59L128.77 1021.59z" stroke="rgba(236, 82, 66, 0.56)"></path><path d="M520.84 18.75L521.6 18.75L521.6 51.31L520.84 51.31z" stroke="rgba(236, 82, 66, 1)"></path><path d="M554.99 661.13L582.99 661.13L582.99 684.83L554.99 684.83z" fill="rgba(236, 82, 66, 0.56)"></path><path d="M771.52 32.14L781.44 32.14L781.44 42.06L771.52 42.06z" fill="rgba(236, 82, 66, 0.26)"></path><path d="M569.5 885.18L620.7 885.18L620.7 905.35L569.5 905.35z" fill="rgba(236, 82, 66, 0.26)"></path><path d="M204.77 553.31L280.44 553.31L280.44 599.3L204.77 599.3z" stroke="rgba(236, 82, 66, 0.56)"></path><path d="M87.62 850.1L119.41 850.1L119.41 902.94L87.62 902.94z" stroke="rgba(236, 82, 66, 0.51)"></path><path d="M368.56 173.38L403.05 173.38L403.05 231.09L368.56 231.09z" stroke="rgba(39, 42, 49, 0.53)"></path><path d="M125.24 439.23 a59.94 59.94 0 1 0 119.88 0 a59.94 59.94 0 1 0 -119.88 0z" stroke="rgba(39, 42, 49, 0.23)"></path><path d="M86.53 247.52a52.42 52.42 0 1 0 22.56 102.39z" fill="rgba(236, 82, 66, 0.56)"></path><path d="M307.86 1036.48L360.01 1036.48L360.01 1088.63L307.86 1088.63z" stroke="rgba(39, 42, 49, 0.23)"></path></g><defs><mask id="SvgjsMask1233"><rect width="786" height="1080" fill="#ffffff"></rect></mask></defs></svg>