<?xml version="1.0" encoding="UTF-8"?>
<svg width="700pt" height="700pt" version="1.1" viewBox="0 0 700 700" xmlns="http://www.w3.org/2000/svg">
 <g>
  <path d="m554.29 119.08v46.984c0 4.832-3.918 8.75-8.75 8.75h-31.578v31.578c0 4.832-3.918 8.75-8.75 8.75h-46.984c-4.832 0-8.75-3.918-8.75-8.75v-31.578h-31.578c-4.832 0-8.75-3.918-8.75-8.75v-46.984c0-4.832 3.918-8.75 8.75-8.75h31.578v-31.578c0-4.832 3.918-8.75 8.75-8.75h46.984c4.832 0 8.75 3.918 8.75 8.75v31.578h31.578c4.832 0 8.75 3.918 8.75 8.75z"/>
  <path d="m386.73 382.45m2.0625-193.11v-40.273c0-4.832-3.918-8.75-8.75-8.75h-77.75c-7.5078-2.793-15.234-5.0312-23.117-6.582-8-1.5742-16.125-2.4297-24.305-2.4297-13.566 0-26.586 2.0078-39.004 6.043-12.324 4-23.988 10-34.938 18.004-11.727 8.5703-20.477 18.84-26.34 30.617-5.9531 11.957-8.8828 25.344-8.8828 39.961 0 18.77 4.9414 34.527 13.633 47.684 6.8047 10.297 15.844 18.867 26.551 25.934-6.9844 4.9414-13.336 10.625-18.535 17.176-8.6367 10.879-14.082 23.965-14.082 39.723 0 9.6367 2.2148 18.168 6.125 25.699 2.2109 4.2578 4.9609 8.1602 8.1523 11.73-4.1758 2.7188-8.0078 5.8828-11.262 9.5664-6.4844 7.3359-10.586 16.477-10.586 27.879 0 28.75 21.082 43.574 46.898 51.141 23.527 6.8945 50.797 7.5508 67.676 7.5508 14.887 0 30.641-1.0273 46.086-3.9766 15.66-2.9922 30.93-7.9766 44.562-15.883 12.695-7.3594 22.312-16.781 28.797-28.086 6.5117-11.348 9.793-24.441 9.793-39.109 0-6.875-0.86719-13.609-2.6758-20.117l-0.097656-0.38281h-0.007813l-0.007812 0.003906c-1.8359-6.4453-4.5859-12.609-8.3242-18.398-3.9258-6.0781-8.793-11.129-14.305-15.301-5.875-4.4453-12.531-7.8984-19.582-10.535-4.5625-1.707-9.2344-2.9453-13.848-3.8633-4.4688-0.89062-9.1055-1.5312-13.613-2.0352-6.0664-0.67969-12.336-1.1133-18.703-1.3828-6.6562-0.28125-12.742-0.37891-18.48-0.37891h-40.141c-2.2148 0-5.3242-0.10938-8.0117-0.68359-1.4531-0.30859-2.6719-0.63281-3.0391-0.89453-0.0625-0.29297-0.085938-0.74609-0.085938-1.2617 0-1.1016 0.13672-1.9648 0.42188-2.6211 0.30078-0.69531 0.83984-1.4062 1.6328-2.1562 0.875-0.83203 1.7656-1.4805 2.6523-1.8672 0.71484-0.3125 1.4805-0.47656 2.3008-0.44141l29.324 1.2031c8.1953 0.33594 16.617-1.0469 24.77-3.3047 7.8438-2.1719 15.406-5.1406 22.227-8.125 8.4727-3.707 16.598-8.293 23.934-13.953 6.7148-5.1758 12.777-11.277 17.852-18.445 5.0781-7.1719 8.7148-14.836 11.098-22.824 2.5234-8.4688 3.6797-17.289 3.6797-26.254 0-8.0859-1.2969-15.781-3.6758-23.082-0.86328-2.6445-1.8672-5.2344-3.0039-7.7617h18.242c4.832 0 8.75-3.918 8.75-8.75zm-164.52 214.39c8.043-1.5586 16.379-1.7734 21.219-1.7734 6.9141 0 14.434 0.042969 23.824 0.21484 8.2148 0.15234 16.27 0.41406 24.012 0.85938 2.9844 0.17188 5.7227 0.34766 7.9297 0.52734 2.7578 0.22656 5.4648 0.48828 8.0781 0.8125 1.5 0.18359 3.1523 0.40625 5.1562 0.74609 1.8984 0.32031 3.8008 0.71875 5.6367 1.2305 3.7617 1.0547 7.4141 2.5273 10.488 5.1133 3.8164 3.2148 6.2461 7.5234 6.2461 13.598 0 1.8828-0.16797 3.7734-0.54297 5.6562-0.38281 1.9258-1.0078 3.8555-1.9141 5.7812-5.3867 11.406-19.125 17.129-33.73 19.934-13.023 2.5-26.695 2.7891-34.512 2.7891-7.3281 0-20.145-0.27344-32.379-2.6211-13.805-2.6484-26.812-8.0859-31.973-18.938-0.88281-1.8516-1.4844-3.7188-1.8555-5.5859-0.36328-1.8203-0.52344-3.6445-0.52344-5.4531 0-1.4141 0.14062-2.9219 0.47266-4.5352 0.34766-1.6914 0.89844-3.3398 1.707-4.8984 4.0156-7.7539 13.113-11.609 22.66-13.457zm45.559-240.97c10.965 5.0742 16.523 18.316 19.277 32.484 0.066406 0.23437 0.12109 0.47656 0.16406 0.71875l-0.023438 0.003906c2.3984 12.848 2.6602 26.25 2.6602 33.68 0 7.3906-0.31641 19.254-2.6562 30.652-2.6172 12.754-7.875 24.742-18.156 30.133-2.1797 1.1445-4.4023 1.918-6.6289 2.3906-2.1953 0.46875-4.3594 0.66797-6.4766 0.66797-1.9141 0-3.8945-0.18359-5.9336-0.61328-2.0664-0.43359-4.1172-1.1328-6.125-2.1641-10.02-5.1406-15.09-16.895-17.582-29.359-2.1914-10.965-2.4805-22.535-2.4805-29.547 0-7.6328 0.26562-21.523 2.7422-34.852 2.7812-14.945 8.5078-29.023 20.02-34.254 1.7305-0.78516 3.5234-1.3359 5.3555-1.6914 1.7773-0.34375 3.5117-0.49609 5.2031-0.49609 1.7227 0 3.4727 0.15234 5.2461 0.5 1.8164 0.35547 3.6172 0.92188 5.3945 1.7461zm-41.242 166.14c-0.039062-0.054687-0.007812-0.011719 0.03125 0.035157z" fill-rule="evenodd"/>
 </g>
</svg>
